# xmcd
#
# Track frame offsets:
#	150
#	18733
#	31674
#	48983
#	61010
#	78164
#	92237
#	113251
#	132170
#	144761
#	159395
#	180115
#	191958
#	208014
#
# Disc length: 2960 seconds
#
# Revision: 1
# Processed by: cddbd v1.5.2PL0 Copyright (c) Steve Scherf et al.
# Submitted via: audiograbber 1.83.01
#
DISCID=a50b8e0e
DTITLE=Various Artist - HMG Christmas 2001
DYEAR=1900
DGENRE=
TTITLE0=Jeff and Sheri Easter -  It Feels Like Christmas Again
TTITLE1=Gayla Earlene - All Through The Year
TTITLE2=David Grough - I Wish It Was Christmas
TTITLE3=David Grough - A Story
TTITLE4=Rick Lang - Heavenly Peace
TTITLE5=W.G. Bill Townsend - Santa Bring My Dadfdy Back To Me
TTITLE6=Teresa Gibbs - Wat Christmas Means To Me
TTITLE7=Vonnie Wood - Wonder How Mary Felt
TTITLE8=Naomi Hills - Silent Night
TTITLE9=Taylor Ware - Christmas Is Love
TTITLE10=Liz Parker - No Time Like The Present
TTITLE11=Steve Wilson - Red White And Blue
TTITLE12=Summer Dawn - Thank You Lord
TTITLE13=Gene Higgins - Autograph Of Jesus
EXTD=
EXTT0=
EXTT1=
EXTT2=
EXTT3=
EXTT4=
EXTT5=
EXTT6=
EXTT7=
EXTT8=
EXTT9=
EXTT10=
EXTT11=
EXTT12=
EXTT13=
PLAYORDER=
